TITLE ""
FILE "Step2_Track21.mp3" MP3
  TRACK 01 AUDIO
    TITLE "Step2_Track21_01"
    INDEX 01 00:00:00
  TRACK 02 AUDIO
    TITLE "Step2_Track21_02"
    INDEX 01 00:00:24
  TRACK 03 AUDIO
    TITLE "Step2_Track21_03"
    INDEX 01 00:01:74
  TRACK 04 AUDIO
    TITLE "Step2_Track21_04"
    INDEX 01 00:02:58
  TRACK 05 AUDIO
    TITLE "Step2_Track21_05"
    INDEX 01 00:03:50
  TRACK 06 AUDIO
    TITLE "Step2_Track21_06"
    INDEX 01 00:03:63
  TRACK 07 AUDIO
    TITLE "Step2_Track21_07"
    INDEX 01 00:05:49
  TRACK 08 AUDIO
    TITLE "Step2_Track21_08"
    INDEX 01 00:05:70
  TRACK 09 AUDIO
    TITLE "Step2_Track21_09"
    INDEX 01 00:06:66
  TRACK 10 AUDIO
    TITLE "Step2_Track21_10"
    INDEX 01 00:06:70
  TRACK 11 AUDIO
    TITLE "Step2_Track21_11"
    INDEX 01 00:08:73
  TRACK 12 AUDIO
    TITLE "Step2_Track21_12"
    INDEX 01 00:09:19
  TRACK 13 AUDIO
    TITLE "Step2_Track21_13"
    INDEX 01 00:10:17
  TRACK 14 AUDIO
    TITLE "Step2_Track21_14"
    INDEX 01 00:10:20
  TRACK 15 AUDIO
    TITLE "Step2_Track21_15"
    INDEX 01 00:11:53
  TRACK 16 AUDIO
    TITLE "Step2_Track21_16"
    INDEX 01 00:12:08
  TRACK 17 AUDIO
    TITLE "Step2_Track21_17"
    INDEX 01 00:13:07
  TRACK 18 AUDIO
    TITLE "Step2_Track21_18"
    INDEX 01 00:13:21
  TRACK 19 AUDIO
    TITLE "Step2_Track21_19"
    INDEX 01 00:15:41
  TRACK 20 AUDIO
    TITLE "Step2_Track21_20"
    INDEX 01 00:15:63
  TRACK 21 AUDIO
    TITLE "Step2_Track21_21"
    INDEX 01 00:16:58
  TRACK 22 AUDIO
    TITLE "Step2_Track21_22"
    INDEX 01 00:16:72
  TRACK 23 AUDIO
    TITLE "Step2_Track21_23"
    INDEX 01 00:19:02
  TRACK 24 AUDIO
    TITLE "Step2_Track21_24"
    INDEX 01 00:19:23
  TRACK 25 AUDIO
    TITLE "Step2_Track21_25"
    INDEX 01 00:20:27
  TRACK 26 AUDIO
    TITLE "Step2_Track21_26"
    INDEX 01 00:20:33
  TRACK 27 AUDIO
    TITLE "Step2_Track21_27"
    INDEX 01 00:22:49
  TRACK 28 AUDIO
    TITLE "Step2_Track21_28"
    INDEX 01 00:23:00
  TRACK 29 AUDIO
    TITLE "Step2_Track21_29"
    INDEX 01 00:23:74
  TRACK 30 AUDIO
    TITLE "Step2_Track21_30"
    INDEX 01 00:24:03
  TRACK 31 AUDIO
    TITLE "Step2_Track21_31"
    INDEX 01 00:26:18
  TRACK 32 AUDIO
    TITLE "Step2_Track21_32"
    INDEX 01 00:26:33
  TRACK 33 AUDIO
    TITLE "Step2_Track21_33"
    INDEX 01 00:27:13
  TRACK 34 AUDIO
    TITLE "Step2_Track21_34"
    INDEX 01 00:27:25
  TRACK 35 AUDIO
    TITLE "Step2_Track21_35"
    INDEX 01 00:29:45
  TRACK 36 AUDIO
    TITLE "Step2_Track21_36"
    INDEX 01 00:29:63
  TRACK 37 AUDIO
    TITLE "Step2_Track21_37"
    INDEX 01 00:30:62
  TRACK 38 AUDIO
    TITLE "Step2_Track21_38"
    INDEX 01 00:30:64
  TRACK 39 AUDIO
    TITLE "Step2_Track21_39"
    INDEX 01 00:33:29
  TRACK 40 AUDIO
    TITLE "Step2_Track21_40"
    INDEX 01 00:33:41
  TRACK 41 AUDIO
    TITLE "Step2_Track21_41"
    INDEX 01 00:34:35
  TRACK 42 AUDIO
    TITLE "Step2_Track21_42"
    INDEX 01 00:34:37
  TRACK 43 AUDIO
    TITLE "Step2_Track21_43"
    INDEX 01 00:36:18
